<svg id="Layer_1" data-name="Layer 1" xmlns="http://www.w3.org/2000/svg" viewBox="0 0 136.29 116.85"><defs><style>.cls-1{fill:#d1d3d4;}</style></defs><title>icon2</title><path class="cls-1" d="M110.72,15.52H44.92A1.91,1.91,0,0,0,43,17.43v38H25.57a1.91,1.91,0,0,0-1.91,1.91v32.4a11.6,11.6,0,0,0,11.59,11.59H101a11.6,11.6,0,0,0,11.59-11.59V17.43a1.91,1.91,0,0,0-1.91-1.91ZM27.48,89.74V59.25H43V89.74a7.77,7.77,0,1,1-15.53,0Zm81.33,0A7.78,7.78,0,0,1,101,97.5H43.84a11.55,11.55,0,0,0,3-7.77V19.34h62Zm0,0"/><path class="cls-1" d="M75.14,37.6h24.5a1.91,1.91,0,0,0,0-3.82H75.14a1.91,1.91,0,0,0,0,3.82Zm0,0"/><path class="cls-1" d="M75.14,58.59h24.5a1.91,1.91,0,1,0,0-3.82H75.14a1.91,1.91,0,1,0,0,3.82Zm0,0"/><path class="cls-1" d="M75.14,79.59h24.5a1.91,1.91,0,0,0,0-3.82H75.14a1.91,1.91,0,0,0,0,3.82Zm0,0"/><path class="cls-1" d="M57.5,39.75a1.92,1.92,0,0,0,1.39.6h0a1.91,1.91,0,0,0,1.4-.62l10.5-11.5A1.91,1.91,0,1,0,68,25.65l-9.11,10-2.84-3a1.91,1.91,0,1,0-2.78,2.63Zm0,0"/><path class="cls-1" d="M68,47.56l-9.11,10-2.84-3a1.91,1.91,0,0,0-2.78,2.62l4.25,4.5a1.92,1.92,0,0,0,1.39.6h0a1.91,1.91,0,0,0,1.4-.62l10.5-11.5A1.91,1.91,0,0,0,68,47.56Zm0,0"/><path class="cls-1" d="M68,69.47l-9.11,10-2.84-3a1.91,1.91,0,0,0-2.78,2.62l4.25,4.5a1.92,1.92,0,0,0,1.39.6h0a1.91,1.91,0,0,0,1.4-.62L70.8,72A1.91,1.91,0,0,0,68,69.47Zm0,0"/></svg>