<svg id="Layer_1" data-name="Layer 1" xmlns="http://www.w3.org/2000/svg" viewBox="0 0 136.29 116.85"><defs><style>.cls-1{fill:#d1d3d4;}</style></defs><title>icon1</title><path class="cls-1" d="M68.15,7.12C36.24,7.12,10.31,25.94,10.31,49c0,15.36,11.29,29.24,29.56,36.64-.36,3-2.38,8.69-11.18,16.66a4.24,4.24,0,0,0,2.85,7.38,5.78,5.78,0,0,0,1.12-.14c1-.29,25.38-7,40.71-18.78C102.94,88.9,126,70.69,126,49c0-23.11-26-41.93-57.83-41.93Zm4,78-.93.07-.69.58c-10.27,8.11-25.48,13.85-33.71,16.51,7.83-8.44,9.16-14.82,8.72-18.89l-.18-1.77L43.74,81C26.65,74.69,16,62.46,16,49c0-20,23.36-36.2,52.1-36.2s52.1,16.23,52.1,36.2c0,18.82-21.13,34.65-48.06,36.09Zm0,0"/><path class="cls-1" d="M57.18,35.72H52.45a2.18,2.18,0,0,0-2.16,2.15v24a2.19,2.19,0,0,0,2.16,2.18h4.74a2.19,2.19,0,0,0,2.18-2.18v-24a2.19,2.19,0,0,0-2.18-2.18Zm0,0"/><path class="cls-1" d="M83.92,45.19H79.21A2.2,2.2,0,0,0,77,47.38v14.5a2.2,2.2,0,0,0,2.18,2.18h4.71a2.2,2.2,0,0,0,2.18-2.18V47.38a2.2,2.2,0,0,0-2.18-2.19Zm0,0"/><path class="cls-1" d="M70.5,29H65.79C64.6,29,63.61,30.8,63.61,33V60c0,2.22,1,4.05,2.18,4.05H70.5c1.19,0,2.18-1.84,2.18-4.05V33c0-2.23-1-4.07-2.18-4.07Zm0,0"/></svg>