<svg id="Layer_1" data-name="Layer 1" xmlns="http://www.w3.org/2000/svg" viewBox="0 0 136.29 116.85"><defs><style>.cls-1{fill:#d1d3d4;}</style></defs><title>icon4</title><path class="cls-1" d="M60.22,54.72a12.67,12.67,0,0,1-16.29,1.36,2.11,2.11,0,0,0-3-3A12.66,12.66,0,0,1,58.61,35.45a2.11,2.11,0,0,0,3,3,12.67,12.67,0,0,1-1.36,16.29Zm-9-25.83A16.88,16.88,0,1,0,63.2,33.83a16.77,16.77,0,0,0-11.94-4.94Z"/><path class="cls-1" d="M64.69,29.35a2.11,2.11,0,1,0,3,0,2.11,2.11,0,0,0-3,0Z"/><path class="cls-1" d="M52.76,41.29a2.11,2.11,0,1,0,3,0,2.11,2.11,0,0,0-3,0Z"/><path class="cls-1" d="M46.79,47.26a2.11,2.11,0,1,0,3,0,2.11,2.11,0,0,0-3,0Z"/><path class="cls-1" d="M34.86,59.19a2.11,2.11,0,1,0,3,0,2.11,2.11,0,0,0-3,0Z"/><path class="cls-1" d="M99.83,37.33H78.73a2.11,2.11,0,1,0,0,4.22h21.1a2.11,2.11,0,1,0,0-4.22Z"/><path class="cls-1" d="M99.79,45.76H78.7a2.11,2.11,0,1,0,0,4.22h21.1a2.11,2.11,0,0,0,0-4.22Z"/><path class="cls-1" d="M89.28,54.2H78.66a2.11,2.11,0,1,0,0,4.22H89.28a2.11,2.11,0,1,0,0-4.22Z"/><path class="cls-1" d="M108.08,71.08a10.54,10.54,0,0,0-16.87,0H76.43a10.53,10.53,0,0,0-16.87,0H44.78a10.54,10.54,0,0,0-16.87,0h-2V20.45h84.39V71.08h-2.27Zm2.27,21.76V96.4H89.24V92.84a10.52,10.52,0,0,1,3.29-7.64,10.52,10.52,0,0,0,14.37-.14,10.51,10.51,0,0,1,3.44,7.78ZM106,77.41a6.33,6.33,0,1,1-6.33-6.33A6.34,6.34,0,0,1,106,77.41ZM78.7,92.84V96.4H57.6V92.84a10.52,10.52,0,0,1,3.29-7.64,10.52,10.52,0,0,0,14.37-.14,10.51,10.51,0,0,1,3.44,7.78ZM74.33,77.41A6.33,6.33,0,1,1,68,71.08a6.34,6.34,0,0,1,6.33,6.33ZM47,92.84V96.4H25.95V92.84a10.52,10.52,0,0,1,3.29-7.64,10.52,10.52,0,0,0,14.37-.14A10.51,10.51,0,0,1,47,92.84ZM42.68,77.41a6.33,6.33,0,1,1-6.33-6.33,6.33,6.33,0,0,1,6.33,6.33Zm74-6.33h-2.11V18.34a2.11,2.11,0,0,0-2.11-2.11H23.84a2.11,2.11,0,0,0-2.11,2.11V71.08H19.62a2.11,2.11,0,0,0,0,4.22H26a10.51,10.51,0,0,0,.73,6.46,14.73,14.73,0,0,0-5,11.08v5.67a2.11,2.11,0,0,0,2.11,2.11H49.16a2.11,2.11,0,0,0,2.11-2.11V92.84A14.74,14.74,0,0,0,46,81.58a10.53,10.53,0,0,0,.65-6.27h11a10.51,10.51,0,0,0,.73,6.46,14.73,14.73,0,0,0-5,11.08v5.67a2.11,2.11,0,0,0,2.11,2.11H80.8a2.11,2.11,0,0,0,2.11-2.11V92.84a14.74,14.74,0,0,0-5.23-11.26,10.53,10.53,0,0,0,.65-6.27h11A10.5,10.5,0,0,0,90,81.76a14.73,14.73,0,0,0-5,11.08v5.67a2.11,2.11,0,0,0,2.11,2.11h25.32a2.11,2.11,0,0,0,2.11-2.11V92.84a14.74,14.74,0,0,0-5.23-11.26A10.53,10.53,0,0,0,110,75.3h6.69a2.11,2.11,0,0,0,0-4.22Z"/></svg>