<svg id="Layer_1" data-name="Layer 1" xmlns="http://www.w3.org/2000/svg" viewBox="0 0 136.29 116.85"><defs><style>.cls-1{fill:#d1d3d4;}</style></defs><title>icon3</title><path class="cls-1" d="M50.63,91.71a1.75,1.75,0,0,1-1.75,1.75H38.36a5.26,5.26,0,0,1-5.26-5.26v-7a1.75,1.75,0,1,1,3.5,0v7A1.75,1.75,0,0,0,38.36,90H48.87a1.75,1.75,0,0,1,1.75,1.75ZM61.14,44.06a1.75,1.75,0,0,0-1.75,1.75v.35a1.75,1.75,0,0,0,3.5,0v-.35a1.75,1.75,0,0,0-1.75-1.75ZM52.38,26.89h5.26a1.75,1.75,0,0,1,1.75,1.75V37.4a1.75,1.75,0,1,0,3.5,0V28.64a5.26,5.26,0,0,0-5.26-5.26H52.38a1.75,1.75,0,1,0,0,3.5Zm49.05,50.81a1.75,1.75,0,0,0-1.75,1.75v8.76A1.75,1.75,0,0,1,97.93,90H92.67a1.75,1.75,0,1,0,0,3.5h5.26a5.26,5.26,0,0,0,5.26-5.26V79.45a1.75,1.75,0,0,0-1.75-1.75ZM57.63,90h-.35a1.75,1.75,0,0,0,0,3.5h.35a1.75,1.75,0,0,0,0-3.5Zm52.56-26.28V93.46a7,7,0,0,1-7,7H33.11a7,7,0,0,1-7-7V44.52A1.75,1.75,0,0,1,28,42.77l5.27.33a4.83,4.83,0,1,0,0-9.64L28,33.78A1.75,1.75,0,0,1,26.1,32V23.39a7,7,0,0,1,7-7H62.89a7,7,0,0,1,7,7V56.67H80.19L80,53.26a8.34,8.34,0,1,1,16.64,0l-.21,3.41h6.79a7,7,0,0,1,7,7Zm-80.59-7H41.76a1.75,1.75,0,0,1,1.75,1.86l-.33,5.27a4.83,4.83,0,1,0,9.64,0l-.33-5.27a1.75,1.75,0,0,1,1.75-1.86H66.39V23.39a3.51,3.51,0,0,0-3.5-3.5H33.11a3.51,3.51,0,0,0-3.5,3.5v6.79L33,30A8.34,8.34,0,1,1,33,46.6l-3.41-.21ZM68.26,83.06l5.27.33a4.83,4.83,0,1,0,0-9.64l-5.27.33a1.75,1.75,0,0,1-1.86-1.75V60.18H56.1l.21,3.41a8.34,8.34,0,1,1-16.64,0l.21-3.41H29.6V93.46a3.51,3.51,0,0,0,3.5,3.5H66.39V84.81a1.75,1.75,0,0,1,1.86-1.75Zm38.43-19.38a3.51,3.51,0,0,0-3.5-3.5H94.53a1.75,1.75,0,0,1-1.75-1.86L93.11,53a4.83,4.83,0,1,0-9.64,0l.33,5.27a1.75,1.75,0,0,1-1.75,1.86H69.9V70.46l3.41-.21a8.34,8.34,0,1,1,0,16.64l-3.41-.21V97h33.29a3.51,3.51,0,0,0,3.5-3.5Zm-5.26,5.26a1.75,1.75,0,0,0-1.75,1.75V71a1.75,1.75,0,1,0,3.5,0v-.35a1.75,1.75,0,0,0-1.75-1.75Zm0,0"/></svg>