<svg id="Layer_1" data-name="Layer 1" xmlns="http://www.w3.org/2000/svg" viewBox="0 0 273 160.86"><defs><style>.cls-1,.cls-2{fill:#fff;}.cls-2{font-size:22.14px;font-family:Bariol-Bold, Bariol;font-weight:700;letter-spacing:1.5em;}.cls-3{letter-spacing:1.48em;}.cls-4{letter-spacing:1.5em;}</style></defs><title>white_logo_bot</title><path class="cls-1" d="M60.39,129.39A192.23,192.23,0,0,1,33.93,129q-14.25-1.11-14.25-18.13V2.08H33a11.72,11.72,0,0,1,8.51,3.7,12.14,12.14,0,0,1,3.7,8.88V31.32H60.39V36.5a12,12,0,0,1-3.7,9.07,12.44,12.44,0,0,1-8.88,3.52H45.22v54.77q0,6.3,7.4,6.29h7.77Z"/><path class="cls-1" d="M150.72,35.76q-10.34-7-31.08-7-18.52,0-28.51,8.51A28.41,28.41,0,0,0,80.78,56.11h24.8a10,10,0,0,1,5.92-5.54,26.66,26.66,0,0,1,9.25-1.48,38,38,0,0,1,10.54,1.65C135.12,51.85,137,54.27,137,58a6.16,6.16,0,0,1-2.14,4.68q-3.78,3.55-14.15,5a58.13,58.13,0,0,0-5.92.92,21.26,21.26,0,0,1-4.43.54,64.9,64.9,0,0,0-8,1.73l-.32.09-2.18.68-.11,0a45.4,45.4,0,0,0-12.53,6.35q-9.08,6.65-9.08,22.21,0,16.66,10,23.86a38.75,38.75,0,0,0,23.32,7.22,146.27,146.27,0,0,0,15.35-.92,45.37,45.37,0,0,0,16.46-5q7.41-3.69,12.78-12t5.37-23.13V56.49Q161.47,43.16,150.72,35.76ZM137.4,80.39v8.66q0,10.37-5.92,16.29t-16.27,5.92c-4.21,0-7.4-1-9.62-3a12,12,0,0,1-3.34-8.89,15.08,15.08,0,0,1,2.59-8.14c3.21-4.45,16.52-9.06,32.6-13Z"/><path class="cls-1" d="M189.05,31H160.55L175,53.61c7.25-.49,14.54-.73,21.8-.73,1.65,0,3.29,0,4.94,0Zm32.19,48.11,6.86-10.54c-13.77.7-27.53,2-41.13,4l3.93,6.18L158.7,129.4h30l18.13-31.1,17.4,31.1h29.6Zm14.81-57q-7.78,0-11.11,6.67L210.46,53.16c8.72.38,17.48,1.07,26.21,2.14l21.59-33.24Z"/><path class="cls-1" d="M67.59,110a35.64,35.64,0,0,0,3.52,7.67A36.73,36.73,0,0,0,83.4,129.84c-9.46,0-21.91-.19-31.37-.16-.77-1.13,1.46-2,.69-3.13,3.57-5.27-3.67-11.13-.1-16.4C54,109.91,66.2,110.26,67.59,110Z"/><path class="cls-1" d="M268.67,64.55c-11.54-.45-24.28-.53-38.05.08A451.06,451.06,0,0,0,184.75,69c-1.54.23-3.08.45-4.62.7-5.84.92-12.2,2-18.66,3.27-8.12,1.56-16.39,3.33-24,5.24-16.09,4-29.39,8.59-32.6,13-2-5.49-3-14.19-5-19.67l.11,0,2.18-.68.32-.09a322.58,322.58,0,0,1,32.49-8.16c3.8-.75,7.67-1.43,11.63-2.07q7.58-1.21,14.94-2,8-.87,15.78-1.33c9.21-.56,18.1-.71,26.63-.51q2.23,0,4.4.11c9.17.32,17.89,1,26.12,2A335.73,335.73,0,0,1,268.67,64.55Z"/><path class="cls-1" d="M268.67,64.55c-11.54-.45-24.28-.53-38.05.08A451.06,451.06,0,0,0,184.75,69c-1.54.23-3.08.45-4.62.7-5.84.92-12.2,2-18.66,3.27-8.12,1.56-16.39,3.33-24,5.24-16.09,4-29.39,8.59-32.6,13-2-5.49-3-14.19-5-19.67l.11,0,2.18-.68.32-.09a322.58,322.58,0,0,1,32.49-8.16c3.8-.75,7.67-1.43,11.63-2.07q7.58-1.21,14.94-2,8-.87,15.78-1.33c9.21-.56,18.1-.71,26.63-.51q2.23,0,4.4.11c9.17.32,17.89,1,26.12,2A335.73,335.73,0,0,1,268.67,64.55Z"/><polyline class="cls-1" points="137.34 83.38 137.4 80.39 137.43 78.23 137.45 77.4"/><path class="cls-1" d="M11.44,31.32H41.77a0,0,0,0,1,0,0V49.05a0,0,0,0,1,0,0H2a0,0,0,0,1,0,0v-8.3a9.44,9.44,0,0,1,9.44-9.44Z"/><text class="cls-2" transform="translate(19.68 160.86)">EXPE<tspan class="cls-3" x="180.22" y="0">R</tspan><tspan class="cls-4" x="225.49" y="0">T</tspan></text></svg>